name Walk4.mot
datacolumns 19
datarows 27
range 2.07500000 2.10100000
endheader

                time	   L_ground_force_vx	   L_ground_force_vy	   L_ground_force_vz	   L_ground_force_px	   L_ground_force_py	   L_ground_force_pz	   R_ground_force_vx	   R_ground_force_vy	   R_ground_force_vz	   R_ground_force_px	   R_ground_force_py	   R_ground_force_pz	   L_ground_torque_x	   L_ground_torque_y	   L_ground_torque_z	   R_ground_torque_x	   R_ground_torque_y	   R_ground_torque_z	
          2.07500000	          0.13612161	          0.37499259	         -0.00856357	         -0.00007855	          0.00000000	          0.00012185	        -17.94642367	        626.55728620	        -51.96348273	          0.19306006	          0.00000000	          0.04721432	          0.00000000	          0.00067305	          0.00000000	          0.00000000	          6.47919934	          0.00000000	
          2.07600000	          0.13199052	          0.36738901	         -0.00894068	         -0.00009915	          0.00000000	          0.00009555	        -17.68424607	        625.32380695	        -51.86423995	          0.19357558	          0.00000000	          0.04724435	          0.00000000	          0.00064798	          0.00000000	          0.00000000	          6.43865274	          0.00000000	
          2.07700000	          0.12771191	          0.35904363	         -0.00925194	         -0.00011763	          0.00000000	          0.00007112	        -17.42487681	        624.15548107	        -51.76495510	          0.19408804	          0.00000000	          0.04727371	          0.00000000	          0.00062260	          0.00000000	          0.00000000	          6.39809993	          0.00000000	
          2.07800000	          0.12331449	          0.35005107	         -0.00950178	         -0.00013410	          0.00000000	          0.00004851	        -17.16811880	        623.05162532	        -51.66577696	          0.19459742	          0.00000000	          0.04730239	          0.00000000	          0.00059702	          0.00000000	          0.00000000	          6.35752775	          0.00000000	
          2.07900000	          0.11882497	          0.34050034	         -0.00969446	         -0.00014865	          0.00000000	          0.00002763	        -16.91378202	        622.01148592	        -51.56685431	          0.19510369	          0.00000000	          0.04733041	          0.00000000	          0.00057136	          0.00000000	          0.00000000	          6.31692334	          0.00000000	
          2.08000000	          0.11426817	          0.33047497	         -0.00983413	         -0.00016141	          0.00000000	          0.00000842	        -16.66168336	        621.03424123	        -51.46833521	          0.19560684	          0.00000000	          0.04735776	          0.00000000	          0.00054573	          0.00000000	          0.00000000	          6.27627448	          0.00000000	
          2.08100000	          0.10966701	          0.32005322	         -0.00992477	         -0.00017247	          0.00000000	         -0.00000919	        -16.41164654	        620.11900462	        -51.37036639	          0.19610687	          0.00000000	          0.04738446	          0.00000000	          0.00052021	          0.00000000	          0.00000000	          6.23556978	          0.00000000	
          2.08200000	          0.10504265	          0.30930816	         -0.00997019	         -0.00018195	          0.00000000	         -0.00002526	        -16.16350201	        619.26482769	        -51.27309231	          0.19660379	          0.00000000	          0.04741052	          0.00000000	          0.00049489	          0.00000000	          0.00000000	          6.19479885	          0.00000000	
          2.08300000	          0.10041455	          0.29830788	         -0.00997408	         -0.00018992	          0.00000000	         -0.00003988	        -15.91708685	        618.47070368	        -51.17665411	          0.19709764	          0.00000000	          0.04743595	          0.00000000	          0.00046986	          0.00000000	          0.00000000	          6.15395221	          0.00000000	
          2.08400000	          0.09580050	          0.28711566	         -0.00993995	         -0.00019651	          0.00000000	         -0.00005310	        -15.67224482	        617.73557109	        -51.08118832	          0.19758844	          0.00000000	          0.04746075	          0.00000000	          0.00044518	          0.00000000	          0.00000000	          6.11302116	          0.00000000	
          2.08500000	          0.09121675	          0.27579011	         -0.00987116	         -0.00020178	          0.00000000	         -0.00006499	        -15.42882648	        617.05831723	        -50.98682553	          0.19807623	          0.00000000	          0.04748495	          0.00000000	          0.00042092	          0.00000000	          0.00000000	          6.07199760	          0.00000000	
          2.08600000	          0.08667804	          0.26438535	         -0.00977092	         -0.00020585	          0.00000000	         -0.00007563	        -15.18668937	        616.43778150	        -50.89368900	          0.19856107	          0.00000000	          0.04750857	          0.00000000	          0.00039713	          0.00000000	          0.00000000	          6.03087375	          0.00000000	
          2.08700000	          0.08219770	          0.25295123	         -0.00964227	         -0.00020880	          0.00000000	         -0.00008508	        -14.94569827	        615.87275841	        -50.80189352	          0.19904302	          0.00000000	          0.04753162	          0.00000000	          0.00037386	          0.00000000	          0.00000000	          5.98964209	          0.00000000	
          2.08800000	          0.07778768	          0.24153343	         -0.00948813	         -0.00021070	          0.00000000	         -0.00009340	        -14.70572528	        615.36200055	        -50.71154443	          0.19952215	          0.00000000	          0.04755413	          0.00000000	          0.00035116	          0.00000000	          0.00000000	          5.94829530	          0.00000000	
          2.08900000	          0.07345869	          0.23017373	         -0.00931125	         -0.00021165	          0.00000000	         -0.00010066	        -14.46664987	        614.90422211	        -50.62273698	          0.19999853	          0.00000000	          0.04757613	          0.00000000	          0.00032906	          0.00000000	          0.00000000	          5.90682645	          0.00000000	
          2.09000000	          0.06922018	          0.21891010	         -0.00911421	         -0.00021172	          0.00000000	         -0.00010693	        -14.22835860	        614.49810329	        -50.53555598	          0.20047225	          0.00000000	          0.04759763	          0.00000000	          0.00030759	          0.00000000	          0.00000000	          5.86522916	          0.00000000	
          2.09100000	          0.06508048	          0.20777695	         -0.00889949	         -0.00021098	          0.00000000	         -0.00011225	        -13.99074482	        614.14229553	        -50.45007557	          0.20094338	          0.00000000	          0.04761864	          0.00000000	          0.00028679	          0.00000000	          0.00000000	          5.82349791	          0.00000000	
          2.09200000	          0.06104683	          0.19680524	         -0.00866940	         -0.00020950	          0.00000000	         -0.00011671	        -13.75370826	        613.83542722	        -50.36635914	          0.20141200	          0.00000000	          0.04763920	          0.00000000	          0.00026667	          0.00000000	          0.00000000	          5.78162813	          0.00000000	
          2.09300000	          0.05712545	          0.18602270	         -0.00842611	         -0.00020737	          0.00000000	         -0.00012034	        -13.51715480	        613.57610929	        -50.28445933	          0.20187817	          0.00000000	          0.04765931	          0.00000000	          0.00024726	          0.00000000	          0.00000000	          5.73961619	          0.00000000	
          2.09400000	          0.05332162	          0.17545401	         -0.00817166	         -0.00020462	          0.00000000	         -0.00012320	        -13.28099636	        613.36294064	        -50.20441804	          0.20234199	          0.00000000	          0.04767898	          0.00000000	          0.00022856	          0.00000000	          0.00000000	          5.69745933	          0.00000000	
          2.09500000	          0.04963972	          0.16512092	         -0.00790797	         -0.00020134	          0.00000000	         -0.00012536	        -13.04515105	        613.19451292	        -50.12626638	          0.20280351	          0.00000000	          0.04769822	          0.00000000	          0.00021059	          0.00000000	          0.00000000	          5.65515561	          0.00000000	
          2.09600000	          0.04608330	          0.15504243	         -0.00763682	         -0.00019758	          0.00000000	         -0.00012686	        -12.80954333	        613.06941513	        -50.05002479	          0.20326281	          0.00000000	          0.04771706	          0.00000000	          0.00019335	          0.00000000	          0.00000000	          5.61270399	          0.00000000	
          2.09700000	          0.04265512	          0.14523498	         -0.00735987	         -0.00019339	          0.00000000	         -0.00012776	        -12.57410407	        612.98623797	        -49.97570315	          0.20371996	          0.00000000	          0.04773549	          0.00000000	          0.00017685	          0.00000000	          0.00000000	          5.57010445	          0.00000000	
          2.09800000	          0.03935723	          0.13571260	         -0.00707865	         -0.00018882	          0.00000000	         -0.00012809	        -12.33877043	        612.94357809	        -49.90330124	          0.20417504	          0.00000000	          0.04775355	          0.00000000	          0.00016108	          0.00000000	          0.00000000	          5.52735825	          0.00000000	
          2.09900000	          0.03619102	          0.12648703	         -0.00679459	         -0.00018393	          0.00000000	         -0.00012792	        -12.10348565	        612.94004223	        -49.83280936	          0.20462810	          0.00000000	          0.04777123	          0.00000000	          0.00014604	          0.00000000	          0.00000000	          5.48446799	          0.00000000	
          2.10000000	          0.03315726	          0.11756788	         -0.00650901	         -0.00017877	          0.00000000	         -0.00012727	        -11.86819899	        612.97425115	        -49.76420908	          0.20507922	          0.00000000	          0.04778855	          0.00000000	          0.00013173	          0.00000000	          0.00000000	          5.44143766	          0.00000000	
          2.10100000	          0.03025614	          0.10896282	         -0.00622312	         -0.00017336	          0.00000000	         -0.00012620	        -11.63286584	        613.04484321	        -49.69747397	          0.20552845	          0.00000000	          0.04780553	          0.00000000	          0.00011814	          0.00000000	          0.00000000	          5.39827235	          0.00000000	
